<svg width="174" height="45" fill="none" xmlns="http://www.w3.org/2000/svg"><path d="M38.075 5.761A18.243 18.243 0 0024.75 0C16.122 0 8.89 5.977 6.958 14.02l2.467-.684c.108-.03.22.024.264.126a.223.223 0 01-.087.28 47.98 47.98 0 00-5.667 4.114c-6.26 5.441-5.202 10.969 4.263 7.204 6.07-2.282 3.851-4.318 3.065-5.215a.332.332 0 01-.084-.253.333.333 0 01.121-.237c.544-.46 1.894.01 2.64.194 1.097.27 2.192.57 3.28.872a.334.334 0 00.292-.05l5.98-4.24a.333.333 0 00.145-.258.334.334 0 00-.11-.275c-.877-.814-3.367-2.928-3.816-3.31-.223-.19-.982-.824-1.786-1.51-.815-.694-1.676-1.442-2.076-1.836a.335.335 0 01-.101-.276.335.335 0 01.148-.254c1.117-.766 3.58.595 4.488 1.025a136.801 136.801 0 012.89 1.427.336.336 0 00.328-.008l.56-.324a.571.571 0 01.78.776.335.335 0 00-.03.27.333.333 0 00.174.208c.661.335 1.324.667 1.988.99.208.101.59.351.867.423.11.028.217.005.305-.067 1.71-1.4 5.087-3.493 7.294-3.823 1.227-.183 2.468-.057 2.845.685a.321.321 0 00.018.032c.453.697-.058 1.835-.83 2.807-1.39 1.749-4.888 3.628-6.955 4.41a.335.335 0 00-.21.232c-.076.275-.051.731-.068.963-.053.737-.097 1.477-.138 2.218a.334.334 0 00.093.255c.067.071.15.108.249.109a.571.571 0 01.282 1.063l-.56.324a.336.336 0 00-.172.28c-.059 1.082-.123 2.16-.21 3.218-.081 1.002-.135 3.818-1.357 4.402a.333.333 0 01-.293.002.334.334 0 01-.188-.226c-.281-1.083-.858-4.44-.964-5.02-.107-.581-.69-3.796-.956-4.962a.334.334 0 00-.184-.233.334.334 0 00-.296-.004l-6.66 3.064a.335.335 0 00-.189.227 120.76 120.76 0 01-.885 3.279c-.215.743-.35 2.387-1.027 2.617-.175.06-.365-.055-.433-.227-1.903-4.862-6.165.732-4.665 2.366.602.656 1.211 1.312 1.825 1.97 3.65 3.908 7.475 7.847 10.872 11.713a.345.345 0 00.532.002c5.233-5.897 14.861-14.276 17.405-22.603.709-2.319.935-5.416.264-7.764-.235-.819-4.738 1.604-4.506 1.075.273-.622 8.982-4.339 8.819-8.43-.09-2.225-3.461-3.24-8.923-1.392z" fill="#FF715B"/><path fill-rule="evenodd" clip-rule="evenodd" d="M127.834 11.075l.071.03c.443.195.767.54.935.946.17.409.181.88-.004 1.317-.416 1.056-.904 2.334-1.439 3.731-1.949 5.099-4.508 11.79-6.353 15.11a1.78 1.78 0 01-.646.793 1.74 1.74 0 01-.974.298c-.363 0-.703-.106-.99-.294a1.779 1.779 0 01-.656-.796c-1.541-2.774-2.864-6.375-4.188-9.977-1.15-3.132-2.301-6.264-3.595-8.853a1.785 1.785 0 01.944-2.284l.006-.001a1.742 1.742 0 011.346-.007c.422.173.779.508.972.948l6.161 14.893c.671-1.62 1.372-3.263 2.077-4.915 1.427-3.342 2.869-6.72 4.106-10.018.183-.416.525-.732.926-.901.403-.171.87-.193 1.301-.02zm22.463 18.62h-11.241v-5.834h9.663c.49 0 .93-.195 1.249-.512.318-.317.512-.757.512-1.25a1.766 1.766 0 00-1.762-1.76h-9.663v-5.753h10.969c.492 0 .933-.194 1.25-.512.318-.318.512-.759.512-1.25a1.753 1.753 0 00-1.761-1.762h-12.73a1.764 1.764 0 00-1.762 1.762v18.633a1.764 1.764 0 001.762 1.762h13.002a1.75 1.75 0 001.762-1.762c0-.491-.194-.931-.512-1.25a1.76 1.76 0 00-1.25-.512zm-71.057.325a1.81 1.81 0 00-1.254-.352.85.85 0 01-.37-.103c-.237-.121-.54-.372-.846-.887a15.025 15.025 0 00-1.431-2.103 14.199 14.199 0 00-1.215-1.318l.236-.095a8.77 8.77 0 00.813-.4l.004-.002c1.084-.621 1.919-1.464 2.481-2.493.56-1.022.85-2.222.85-3.568 0-.602-.044-1.182-.136-1.735a7.246 7.246 0 00-.437-1.565 6.92 6.92 0 00-.63-1.251 6.083 6.083 0 00-.873-1.064 6.65 6.65 0 00-1.473-1.1 7.228 7.228 0 00-1.76-.69 7.022 7.022 0 00-1.702-.232h-8.079a1.748 1.748 0 00-1.762 1.762v18.66a1.765 1.765 0 001.762 1.762 1.75 1.75 0 001.243-.517c.322-.322.519-.766.519-1.245V14.586h6.317c.047 0 .445.01.962.155.276.077.583.192.881.362.24.143.45.307.631.49.184.184.34.389.472.613.181.315.316.678.406 1.088.092.42.137.889.137 1.405 0 .738-.121 1.346-.376 1.836-.249.48-.632.86-1.16 1.162-.49.276-1.09.485-1.8.627-.722.144-1.553.216-2.492.216-.458 0-.883.17-1.2.456-.314.283-.525.68-.56 1.138a1.726 1.726 0 001.413 1.895l.04.008h.034c.016 0 .227.068.629.26a7.2 7.2 0 01.865.49l.003.002a9.258 9.258 0 011.81 1.532c.565.613 1.08 1.32 1.542 2.112.452.785.961 1.338 1.458 1.732.502.399.99.636 1.39.784l.015.004c.353.114.67.176.937.206.443.05.767.019.903 0 .477-.07.883-.335 1.151-.699.268-.364.4-.83.33-1.306a1.722 1.722 0 00-.678-1.134zm94.248.215a1.756 1.756 0 00-1.249-.512H162.14v-16.9c0-.49-.194-.93-.512-1.249a1.753 1.753 0 00-1.249-.512 1.764 1.764 0 00-1.762 1.762v18.66a1.767 1.767 0 001.762 1.762h11.86c.491 0 .932-.194 1.249-.511.318-.318.512-.758.512-1.25 0-.493-.194-.933-.512-1.25zM98.13 11.332c.276.172.506.42.649.723 1.017 2.08 2.03 4.167 3.044 6.255v.001l.001.001c2.01 4.141 4.021 8.285 6.075 12.393.202.42.217.889.074 1.304a1.74 1.74 0 01-.871.993l-.038.02a1.725 1.725 0 01-1.333.09 1.755 1.755 0 01-.996-.852c-.465-.928-.916-1.87-1.367-2.81v-.001c-.23-.48-.46-.96-.691-1.436a8.651 8.651 0 00-1.919-.284 10.27 10.27 0 00-2.243.178c-.724.13-1.464.33-2.221.6-.756.268-1.527.608-2.311 1.02a23.74 23.74 0 00-2.43 1.488c-1.357.944-2.188 1.715-2.206 1.733a1.747 1.747 0 01-1.21.498 1.79 1.79 0 01-.562-.092 1.668 1.668 0 01-.5-.265 1.763 1.763 0 01-.654-.994 1.737 1.737 0 01.134-1.188l9.057-18.668c.158-.297.386-.543.659-.712a1.746 1.746 0 011.86.005zm-.272 13.12c.623-.11 1.237-.188 1.845-.222a11.86 11.86 0 011.098-.016l-3.607-7.375-4.569 9.442a20.593 20.593 0 012.444-1.067 17.68 17.68 0 012.785-.76l.004-.002z" fill="#2C2C2C"/></svg>