<svg width="19" height="21" fill="none" xmlns="http://www.w3.org/2000/svg"><path fill-rule="evenodd" clip-rule="evenodd" d="M4.473 5.436c0 2.9 2.172 5.255 4.845 5.255 2.673 0 4.846-2.355 4.846-5.255C14.164 2.627 12.082.5 9.318.5 6.555.5 4.473 2.627 4.473 5.436zm1.463.01c0-2.019 1.419-3.482 3.382-3.482 1.928 0 3.382 1.49 3.382 3.481 0 2.1-1.518 3.8-3.382 3.8-1.863 0-3.382-1.709-3.382-3.8zM0 19.772c0 .4.327.727.727.727H17.91a.73.73 0 00.727-.727c0-5.164-3.309-8.01-9.318-8.01C3.31 11.764 0 14.61 0 19.774zm17.154-.737H1.491c.282-3.854 2.909-5.818 7.827-5.818s7.546 1.955 7.836 5.818z" fill="#2C2C2C"/></svg>